<svg width="16" height="16" viewBox="0 0 16 16" fill="none" xmlns="http://www.w3.org/2000/svg">
<path d="M8.70264 13.1307C10.0871 13.8275 11.7097 14.3358 13.6047 14.5679C14.1781 14.6382 14.6667 14.1777 14.6667 13.6001V12.1141C14.6667 11.6553 14.3544 11.2553 13.9092 11.144L11.8826 10.6374C11.5419 10.5522 11.1814 10.652 10.933 10.9004L8.70264 13.1307ZM8.70264 13.1307C6.10625 11.824 4.34755 9.8542 3.20098 7.79907M3.20098 7.79907C2.14692 5.90974 1.61019 3.94831 1.41555 2.36365C1.34663 1.80252 1.80189 1.33337 2.36723 1.33337H3.84687C4.32355 1.33337 4.73397 1.66983 4.82745 2.13726L5.39505 4.97525C5.46062 5.30311 5.358 5.64205 5.12158 5.87847L3.20098 7.79907Z" stroke="#97A1AF" stroke-width="1.5"/>
</svg>
