<svg width="24" height="23" viewBox="0 0 24 23" fill="none" xmlns="http://www.w3.org/2000/svg">
<path d="M11.3449 0.738688C11.6129 0.198106 12.3871 0.198107 12.655 0.738688L15.6943 6.87035C15.8007 7.08501 16.0064 7.2338 16.2443 7.26822L23.0404 8.25148C23.6396 8.33817 23.8788 9.07129 23.4452 9.49207L18.5276 14.2649C18.3554 14.432 18.2768 14.6727 18.3175 14.9087L19.4784 21.648C19.5807 22.2422 18.9544 22.6953 18.4185 22.4148L12.3399 19.2329C12.1271 19.1215 11.8729 19.1215 11.6601 19.2329L5.58146 22.4148C5.04556 22.6953 4.41922 22.2422 4.52157 21.648L5.68248 14.9087C5.72312 14.6727 5.64456 14.432 5.47239 14.2649L0.554709 9.49207C0.121154 9.07129 0.360396 8.33817 0.959553 8.25148L7.75562 7.26822C7.99355 7.2338 8.19923 7.08501 8.30563 6.87035L11.3449 0.738688Z" fill="#141C24"/>
</svg>
